<mxfile host="app.diagrams.net" agent="Mozilla/5.0 (Windows NT 10.0; Win64; x64) AppleWebKit/537.36 (KHTML, like Gecko) Chrome/127.0.0.0 Safari/537.36" version="24.7.6">
  <diagram name="Page-1" id="_VK6Gtw85IdQlulCdHNj">
    <mxGraphModel dx="1434" dy="780" grid="1" gridSize="10" guides="1" tooltips="1" connect="1" arrows="1" fold="1" page="1" pageScale="1" pageWidth="850" pageHeight="1100" math="0" shadow="0">
      <root>
        <mxCell id="0" />
        <mxCell id="1" parent="0" />
        <mxCell id="shJ95JAvYnfb2to4ammS-1" value="Actor" style="shape=umlActor;verticalLabelPosition=bottom;verticalAlign=top;html=1;outlineConnect=0;" parent="1" vertex="1">
          <mxGeometry x="90" y="100" width="30" height="60" as="geometry" />
        </mxCell>
        <mxCell id="shJ95JAvYnfb2to4ammS-2" value="Actor" style="shape=umlActor;verticalLabelPosition=bottom;verticalAlign=top;html=1;outlineConnect=0;" parent="1" vertex="1">
          <mxGeometry x="90" y="230" width="30" height="60" as="geometry" />
        </mxCell>
        <mxCell id="shJ95JAvYnfb2to4ammS-3" value="business owner&lt;div&gt;&lt;br&gt;&lt;/div&gt;" style="shape=umlActor;verticalLabelPosition=bottom;verticalAlign=top;html=1;outlineConnect=0;" parent="1" vertex="1">
          <mxGeometry x="90" y="390" width="30" height="60" as="geometry" />
        </mxCell>
        <mxCell id="shJ95JAvYnfb2to4ammS-7" value="businesses" style="shape=cylinder3;whiteSpace=wrap;html=1;boundedLbl=1;backgroundOutline=1;size=15;" parent="1" vertex="1">
          <mxGeometry x="1000" y="120" width="90" height="80" as="geometry" />
        </mxCell>
        <mxCell id="shJ95JAvYnfb2to4ammS-8" value="busisness_table" style="swimlane;fontStyle=0;childLayout=stackLayout;horizontal=1;startSize=30;horizontalStack=0;resizeParent=1;resizeParentMax=0;resizeLast=0;collapsible=1;marginBottom=0;whiteSpace=wrap;html=1;" parent="1" vertex="1">
          <mxGeometry x="790" y="550" width="140" height="90" as="geometry" />
        </mxCell>
        <mxCell id="shJ95JAvYnfb2to4ammS-10" value="business_id" style="text;strokeColor=none;fillColor=none;align=left;verticalAlign=middle;spacingLeft=4;spacingRight=4;overflow=hidden;points=[[0,0.5],[1,0.5]];portConstraint=eastwest;rotatable=0;whiteSpace=wrap;html=1;" parent="shJ95JAvYnfb2to4ammS-8" vertex="1">
          <mxGeometry y="30" width="140" height="30" as="geometry" />
        </mxCell>
        <mxCell id="shJ95JAvYnfb2to4ammS-11" value="owner_id" style="text;strokeColor=none;fillColor=none;align=left;verticalAlign=middle;spacingLeft=4;spacingRight=4;overflow=hidden;points=[[0,0.5],[1,0.5]];portConstraint=eastwest;rotatable=0;whiteSpace=wrap;html=1;" parent="shJ95JAvYnfb2to4ammS-8" vertex="1">
          <mxGeometry y="60" width="140" height="30" as="geometry" />
        </mxCell>
        <mxCell id="shJ95JAvYnfb2to4ammS-19" value="owners" style="swimlane;fontStyle=0;childLayout=stackLayout;horizontal=1;startSize=30;horizontalStack=0;resizeParent=1;resizeParentMax=0;resizeLast=0;collapsible=1;marginBottom=0;whiteSpace=wrap;html=1;" parent="1" vertex="1">
          <mxGeometry x="550" y="650" width="140" height="150" as="geometry" />
        </mxCell>
        <mxCell id="shJ95JAvYnfb2to4ammS-20" value="owner_id" style="text;strokeColor=none;fillColor=none;align=left;verticalAlign=middle;spacingLeft=4;spacingRight=4;overflow=hidden;points=[[0,0.5],[1,0.5]];portConstraint=eastwest;rotatable=0;whiteSpace=wrap;html=1;" parent="shJ95JAvYnfb2to4ammS-19" vertex="1">
          <mxGeometry y="30" width="140" height="30" as="geometry" />
        </mxCell>
        <mxCell id="shJ95JAvYnfb2to4ammS-21" value="name" style="text;strokeColor=none;fillColor=none;align=left;verticalAlign=middle;spacingLeft=4;spacingRight=4;overflow=hidden;points=[[0,0.5],[1,0.5]];portConstraint=eastwest;rotatable=0;whiteSpace=wrap;html=1;" parent="shJ95JAvYnfb2to4ammS-19" vertex="1">
          <mxGeometry y="60" width="140" height="30" as="geometry" />
        </mxCell>
        <mxCell id="shJ95JAvYnfb2to4ammS-22" value="mail" style="text;strokeColor=none;fillColor=none;align=left;verticalAlign=middle;spacingLeft=4;spacingRight=4;overflow=hidden;points=[[0,0.5],[1,0.5]];portConstraint=eastwest;rotatable=0;whiteSpace=wrap;html=1;" parent="shJ95JAvYnfb2to4ammS-19" vertex="1">
          <mxGeometry y="90" width="140" height="30" as="geometry" />
        </mxCell>
        <mxCell id="shJ95JAvYnfb2to4ammS-23" value="phone" style="text;strokeColor=none;fillColor=none;align=left;verticalAlign=middle;spacingLeft=4;spacingRight=4;overflow=hidden;points=[[0,0.5],[1,0.5]];portConstraint=eastwest;rotatable=0;whiteSpace=wrap;html=1;" parent="shJ95JAvYnfb2to4ammS-19" vertex="1">
          <mxGeometry y="120" width="140" height="30" as="geometry" />
        </mxCell>
        <mxCell id="shJ95JAvYnfb2to4ammS-26" value="Relation" style="endArrow=open;html=1;endSize=12;startArrow=diamondThin;startSize=14;startFill=0;edgeStyle=orthogonalEdgeStyle;rounded=0;entryX=1;entryY=0.5;entryDx=0;entryDy=0;exitX=0.143;exitY=0.333;exitDx=0;exitDy=0;exitPerimeter=0;" parent="1" source="shJ95JAvYnfb2to4ammS-11" target="shJ95JAvYnfb2to4ammS-20" edge="1">
          <mxGeometry relative="1" as="geometry">
            <mxPoint x="930" y="760" as="sourcePoint" />
            <mxPoint x="1090" y="760" as="targetPoint" />
          </mxGeometry>
        </mxCell>
        <mxCell id="shJ95JAvYnfb2to4ammS-27" value="0..n" style="edgeLabel;resizable=0;html=1;align=left;verticalAlign=top;" parent="shJ95JAvYnfb2to4ammS-26" connectable="0" vertex="1">
          <mxGeometry x="-1" relative="1" as="geometry" />
        </mxCell>
        <mxCell id="shJ95JAvYnfb2to4ammS-28" value="1" style="edgeLabel;resizable=0;html=1;align=right;verticalAlign=top;" parent="shJ95JAvYnfb2to4ammS-26" connectable="0" vertex="1">
          <mxGeometry x="1" relative="1" as="geometry" />
        </mxCell>
        <mxCell id="shJ95JAvYnfb2to4ammS-29" value="business" style="swimlane;fontStyle=0;childLayout=stackLayout;horizontal=1;startSize=30;horizontalStack=0;resizeParent=1;resizeParentMax=0;resizeLast=0;collapsible=1;marginBottom=0;whiteSpace=wrap;html=1;" parent="1" vertex="1">
          <mxGeometry x="1030" y="730" width="140" height="270" as="geometry" />
        </mxCell>
        <mxCell id="shJ95JAvYnfb2to4ammS-30" value="business_id" style="text;strokeColor=none;fillColor=none;align=left;verticalAlign=middle;spacingLeft=4;spacingRight=4;overflow=hidden;points=[[0,0.5],[1,0.5]];portConstraint=eastwest;rotatable=0;whiteSpace=wrap;html=1;" parent="shJ95JAvYnfb2to4ammS-29" vertex="1">
          <mxGeometry y="30" width="140" height="30" as="geometry" />
        </mxCell>
        <mxCell id="shJ95JAvYnfb2to4ammS-31" value="business_name" style="text;strokeColor=none;fillColor=none;align=left;verticalAlign=middle;spacingLeft=4;spacingRight=4;overflow=hidden;points=[[0,0.5],[1,0.5]];portConstraint=eastwest;rotatable=0;whiteSpace=wrap;html=1;" parent="shJ95JAvYnfb2to4ammS-29" vertex="1">
          <mxGeometry y="60" width="140" height="30" as="geometry" />
        </mxCell>
        <mxCell id="shJ95JAvYnfb2to4ammS-34" value="description" style="text;strokeColor=none;fillColor=none;align=left;verticalAlign=middle;spacingLeft=4;spacingRight=4;overflow=hidden;points=[[0,0.5],[1,0.5]];portConstraint=eastwest;rotatable=0;whiteSpace=wrap;html=1;" parent="shJ95JAvYnfb2to4ammS-29" vertex="1">
          <mxGeometry y="90" width="140" height="30" as="geometry" />
        </mxCell>
        <mxCell id="shJ95JAvYnfb2to4ammS-32" value="type" style="text;strokeColor=none;fillColor=none;align=left;verticalAlign=middle;spacingLeft=4;spacingRight=4;overflow=hidden;points=[[0,0.5],[1,0.5]];portConstraint=eastwest;rotatable=0;whiteSpace=wrap;html=1;" parent="shJ95JAvYnfb2to4ammS-29" vertex="1">
          <mxGeometry y="120" width="140" height="30" as="geometry" />
        </mxCell>
        <mxCell id="shJ95JAvYnfb2to4ammS-33" value="products" style="text;strokeColor=none;fillColor=none;align=left;verticalAlign=middle;spacingLeft=4;spacingRight=4;overflow=hidden;points=[[0,0.5],[1,0.5]];portConstraint=eastwest;rotatable=0;whiteSpace=wrap;html=1;" parent="shJ95JAvYnfb2to4ammS-29" vertex="1">
          <mxGeometry y="150" width="140" height="30" as="geometry" />
        </mxCell>
        <mxCell id="shJ95JAvYnfb2to4ammS-62" value="delivery" style="text;strokeColor=none;fillColor=none;align=left;verticalAlign=middle;spacingLeft=4;spacingRight=4;overflow=hidden;points=[[0,0.5],[1,0.5]];portConstraint=eastwest;rotatable=0;whiteSpace=wrap;html=1;" parent="shJ95JAvYnfb2to4ammS-29" vertex="1">
          <mxGeometry y="180" width="140" height="30" as="geometry" />
        </mxCell>
        <mxCell id="tW2_9nEDNr6UEY2ShWRn-1" value="status: enum" style="text;strokeColor=none;fillColor=none;align=left;verticalAlign=middle;spacingLeft=4;spacingRight=4;overflow=hidden;points=[[0,0.5],[1,0.5]];portConstraint=eastwest;rotatable=0;whiteSpace=wrap;html=1;" parent="shJ95JAvYnfb2to4ammS-29" vertex="1">
          <mxGeometry y="210" width="140" height="30" as="geometry" />
        </mxCell>
        <mxCell id="tW2_9nEDNr6UEY2ShWRn-2" value="opening_hours" style="text;strokeColor=none;fillColor=none;align=left;verticalAlign=middle;spacingLeft=4;spacingRight=4;overflow=hidden;points=[[0,0.5],[1,0.5]];portConstraint=eastwest;rotatable=0;whiteSpace=wrap;html=1;" parent="shJ95JAvYnfb2to4ammS-29" vertex="1">
          <mxGeometry y="240" width="140" height="30" as="geometry" />
        </mxCell>
        <mxCell id="shJ95JAvYnfb2to4ammS-35" value="products" style="swimlane;fontStyle=0;childLayout=stackLayout;horizontal=1;startSize=30;horizontalStack=0;resizeParent=1;resizeParentMax=0;resizeLast=0;collapsible=1;marginBottom=0;whiteSpace=wrap;html=1;" parent="1" vertex="1">
          <mxGeometry x="1360" y="770" width="140" height="270" as="geometry" />
        </mxCell>
        <mxCell id="shJ95JAvYnfb2to4ammS-36" value="product_id" style="text;strokeColor=none;fillColor=none;align=left;verticalAlign=middle;spacingLeft=4;spacingRight=4;overflow=hidden;points=[[0,0.5],[1,0.5]];portConstraint=eastwest;rotatable=0;whiteSpace=wrap;html=1;" parent="shJ95JAvYnfb2to4ammS-35" vertex="1">
          <mxGeometry y="30" width="140" height="30" as="geometry" />
        </mxCell>
        <mxCell id="shJ95JAvYnfb2to4ammS-37" value="product_name" style="text;strokeColor=none;fillColor=none;align=left;verticalAlign=middle;spacingLeft=4;spacingRight=4;overflow=hidden;points=[[0,0.5],[1,0.5]];portConstraint=eastwest;rotatable=0;whiteSpace=wrap;html=1;" parent="shJ95JAvYnfb2to4ammS-35" vertex="1">
          <mxGeometry y="60" width="140" height="30" as="geometry" />
        </mxCell>
        <mxCell id="shJ95JAvYnfb2to4ammS-38" value="price" style="text;strokeColor=none;fillColor=none;align=left;verticalAlign=middle;spacingLeft=4;spacingRight=4;overflow=hidden;points=[[0,0.5],[1,0.5]];portConstraint=eastwest;rotatable=0;whiteSpace=wrap;html=1;" parent="shJ95JAvYnfb2to4ammS-35" vertex="1">
          <mxGeometry y="90" width="140" height="30" as="geometry" />
        </mxCell>
        <mxCell id="shJ95JAvYnfb2to4ammS-39" value="type" style="text;strokeColor=none;fillColor=none;align=left;verticalAlign=middle;spacingLeft=4;spacingRight=4;overflow=hidden;points=[[0,0.5],[1,0.5]];portConstraint=eastwest;rotatable=0;whiteSpace=wrap;html=1;" parent="shJ95JAvYnfb2to4ammS-35" vertex="1">
          <mxGeometry y="120" width="140" height="30" as="geometry" />
        </mxCell>
        <mxCell id="shJ95JAvYnfb2to4ammS-65" value="ingredients" style="text;strokeColor=none;fillColor=none;align=left;verticalAlign=middle;spacingLeft=4;spacingRight=4;overflow=hidden;points=[[0,0.5],[1,0.5]];portConstraint=eastwest;rotatable=0;whiteSpace=wrap;html=1;" parent="shJ95JAvYnfb2to4ammS-35" vertex="1">
          <mxGeometry y="150" width="140" height="30" as="geometry" />
        </mxCell>
        <mxCell id="shJ95JAvYnfb2to4ammS-42" value="extras" style="text;strokeColor=none;fillColor=none;align=left;verticalAlign=middle;spacingLeft=4;spacingRight=4;overflow=hidden;points=[[0,0.5],[1,0.5]];portConstraint=eastwest;rotatable=0;whiteSpace=wrap;html=1;" parent="shJ95JAvYnfb2to4ammS-35" vertex="1">
          <mxGeometry y="180" width="140" height="30" as="geometry" />
        </mxCell>
        <mxCell id="shJ95JAvYnfb2to4ammS-55" value="business_id" style="text;strokeColor=none;fillColor=none;align=left;verticalAlign=middle;spacingLeft=4;spacingRight=4;overflow=hidden;points=[[0,0.5],[1,0.5]];portConstraint=eastwest;rotatable=0;whiteSpace=wrap;html=1;" parent="shJ95JAvYnfb2to4ammS-35" vertex="1">
          <mxGeometry y="210" width="140" height="30" as="geometry" />
        </mxCell>
        <mxCell id="shJ95JAvYnfb2to4ammS-63" value="hidden" style="text;strokeColor=none;fillColor=none;align=left;verticalAlign=middle;spacingLeft=4;spacingRight=4;overflow=hidden;points=[[0,0.5],[1,0.5]];portConstraint=eastwest;rotatable=0;whiteSpace=wrap;html=1;" parent="shJ95JAvYnfb2to4ammS-35" vertex="1">
          <mxGeometry y="240" width="140" height="30" as="geometry" />
        </mxCell>
        <mxCell id="shJ95JAvYnfb2to4ammS-43" value="extras" style="swimlane;fontStyle=0;childLayout=stackLayout;horizontal=1;startSize=30;horizontalStack=0;resizeParent=1;resizeParentMax=0;resizeLast=0;collapsible=1;marginBottom=0;whiteSpace=wrap;html=1;" parent="1" vertex="1">
          <mxGeometry x="1670" y="890" width="140" height="120" as="geometry" />
        </mxCell>
        <mxCell id="shJ95JAvYnfb2to4ammS-44" value="name" style="text;strokeColor=none;fillColor=none;align=left;verticalAlign=middle;spacingLeft=4;spacingRight=4;overflow=hidden;points=[[0,0.5],[1,0.5]];portConstraint=eastwest;rotatable=0;whiteSpace=wrap;html=1;" parent="shJ95JAvYnfb2to4ammS-43" vertex="1">
          <mxGeometry y="30" width="140" height="30" as="geometry" />
        </mxCell>
        <mxCell id="shJ95JAvYnfb2to4ammS-45" value="price" style="text;strokeColor=none;fillColor=none;align=left;verticalAlign=middle;spacingLeft=4;spacingRight=4;overflow=hidden;points=[[0,0.5],[1,0.5]];portConstraint=eastwest;rotatable=0;whiteSpace=wrap;html=1;" parent="shJ95JAvYnfb2to4ammS-43" vertex="1">
          <mxGeometry y="60" width="140" height="30" as="geometry" />
        </mxCell>
        <mxCell id="shJ95JAvYnfb2to4ammS-47" value="product_id" style="text;strokeColor=none;fillColor=none;align=left;verticalAlign=middle;spacingLeft=4;spacingRight=4;overflow=hidden;points=[[0,0.5],[1,0.5]];portConstraint=eastwest;rotatable=0;whiteSpace=wrap;html=1;" parent="shJ95JAvYnfb2to4ammS-43" vertex="1">
          <mxGeometry y="90" width="140" height="30" as="geometry" />
        </mxCell>
        <mxCell id="shJ95JAvYnfb2to4ammS-51" value="Relation" style="endArrow=open;html=1;endSize=12;startArrow=diamondThin;startSize=14;startFill=0;edgeStyle=orthogonalEdgeStyle;rounded=0;entryX=1;entryY=0.5;entryDx=0;entryDy=0;exitX=0.071;exitY=0.333;exitDx=0;exitDy=0;exitPerimeter=0;" parent="1" source="shJ95JAvYnfb2to4ammS-47" target="shJ95JAvYnfb2to4ammS-36" edge="1">
          <mxGeometry relative="1" as="geometry">
            <mxPoint x="1160" y="900" as="sourcePoint" />
            <mxPoint x="1320" y="900" as="targetPoint" />
          </mxGeometry>
        </mxCell>
        <mxCell id="shJ95JAvYnfb2to4ammS-52" value="0..n" style="edgeLabel;resizable=0;html=1;align=left;verticalAlign=top;" parent="shJ95JAvYnfb2to4ammS-51" connectable="0" vertex="1">
          <mxGeometry x="-1" relative="1" as="geometry" />
        </mxCell>
        <mxCell id="shJ95JAvYnfb2to4ammS-53" value="1" style="edgeLabel;resizable=0;html=1;align=right;verticalAlign=top;" parent="shJ95JAvYnfb2to4ammS-51" connectable="0" vertex="1">
          <mxGeometry x="1" relative="1" as="geometry" />
        </mxCell>
        <mxCell id="shJ95JAvYnfb2to4ammS-56" value="Relation" style="endArrow=open;html=1;endSize=12;startArrow=diamondThin;startSize=14;startFill=0;edgeStyle=orthogonalEdgeStyle;rounded=0;entryX=1.036;entryY=0.267;entryDx=0;entryDy=0;entryPerimeter=0;exitX=0;exitY=0.5;exitDx=0;exitDy=0;" parent="1" source="shJ95JAvYnfb2to4ammS-55" target="shJ95JAvYnfb2to4ammS-30" edge="1">
          <mxGeometry relative="1" as="geometry">
            <mxPoint x="1160" y="900" as="sourcePoint" />
            <mxPoint x="1320" y="900" as="targetPoint" />
          </mxGeometry>
        </mxCell>
        <mxCell id="shJ95JAvYnfb2to4ammS-57" value="0..n" style="edgeLabel;resizable=0;html=1;align=left;verticalAlign=top;" parent="shJ95JAvYnfb2to4ammS-56" connectable="0" vertex="1">
          <mxGeometry x="-1" relative="1" as="geometry" />
        </mxCell>
        <mxCell id="shJ95JAvYnfb2to4ammS-58" value="1" style="edgeLabel;resizable=0;html=1;align=right;verticalAlign=top;" parent="shJ95JAvYnfb2to4ammS-56" connectable="0" vertex="1">
          <mxGeometry x="1" relative="1" as="geometry" />
        </mxCell>
        <mxCell id="shJ95JAvYnfb2to4ammS-59" value="Relation" style="endArrow=open;html=1;endSize=12;startArrow=diamondThin;startSize=14;startFill=0;edgeStyle=orthogonalEdgeStyle;rounded=0;entryX=1;entryY=0.5;entryDx=0;entryDy=0;exitX=0;exitY=0.267;exitDx=0;exitDy=0;exitPerimeter=0;" parent="1" source="shJ95JAvYnfb2to4ammS-30" target="shJ95JAvYnfb2to4ammS-10" edge="1">
          <mxGeometry relative="1" as="geometry">
            <mxPoint x="1010" y="595" as="sourcePoint" />
            <mxPoint x="1170" y="594.5" as="targetPoint" />
          </mxGeometry>
        </mxCell>
        <mxCell id="shJ95JAvYnfb2to4ammS-60" value="0..n" style="edgeLabel;resizable=0;html=1;align=left;verticalAlign=top;" parent="shJ95JAvYnfb2to4ammS-59" connectable="0" vertex="1">
          <mxGeometry x="-1" relative="1" as="geometry" />
        </mxCell>
        <mxCell id="shJ95JAvYnfb2to4ammS-61" value="1" style="edgeLabel;resizable=0;html=1;align=right;verticalAlign=top;" parent="shJ95JAvYnfb2to4ammS-59" connectable="0" vertex="1">
          <mxGeometry x="1" relative="1" as="geometry" />
        </mxCell>
        <mxCell id="shJ95JAvYnfb2to4ammS-66" value="ingredients" style="swimlane;fontStyle=0;childLayout=stackLayout;horizontal=1;startSize=30;horizontalStack=0;resizeParent=1;resizeParentMax=0;resizeLast=0;collapsible=1;marginBottom=0;whiteSpace=wrap;html=1;" parent="1" vertex="1">
          <mxGeometry x="1680" y="700" width="140" height="120" as="geometry" />
        </mxCell>
        <mxCell id="shJ95JAvYnfb2to4ammS-67" value="product_id" style="text;strokeColor=none;fillColor=none;align=left;verticalAlign=middle;spacingLeft=4;spacingRight=4;overflow=hidden;points=[[0,0.5],[1,0.5]];portConstraint=eastwest;rotatable=0;whiteSpace=wrap;html=1;" parent="shJ95JAvYnfb2to4ammS-66" vertex="1">
          <mxGeometry y="30" width="140" height="30" as="geometry" />
        </mxCell>
        <mxCell id="shJ95JAvYnfb2to4ammS-68" value="ingredient_name" style="text;strokeColor=none;fillColor=none;align=left;verticalAlign=middle;spacingLeft=4;spacingRight=4;overflow=hidden;points=[[0,0.5],[1,0.5]];portConstraint=eastwest;rotatable=0;whiteSpace=wrap;html=1;" parent="shJ95JAvYnfb2to4ammS-66" vertex="1">
          <mxGeometry y="60" width="140" height="30" as="geometry" />
        </mxCell>
        <mxCell id="shJ95JAvYnfb2to4ammS-69" value="to_remove" style="text;strokeColor=none;fillColor=none;align=left;verticalAlign=middle;spacingLeft=4;spacingRight=4;overflow=hidden;points=[[0,0.5],[1,0.5]];portConstraint=eastwest;rotatable=0;whiteSpace=wrap;html=1;" parent="shJ95JAvYnfb2to4ammS-66" vertex="1">
          <mxGeometry y="90" width="140" height="30" as="geometry" />
        </mxCell>
        <mxCell id="shJ95JAvYnfb2to4ammS-74" value="Relation" style="endArrow=open;html=1;endSize=12;startArrow=diamondThin;startSize=14;startFill=0;edgeStyle=orthogonalEdgeStyle;rounded=0;exitX=0.143;exitY=0.333;exitDx=0;exitDy=0;exitPerimeter=0;entryX=1;entryY=0.5;entryDx=0;entryDy=0;" parent="1" source="shJ95JAvYnfb2to4ammS-67" target="shJ95JAvYnfb2to4ammS-36" edge="1">
          <mxGeometry relative="1" as="geometry">
            <mxPoint x="1180" y="650" as="sourcePoint" />
            <mxPoint x="1340" y="650" as="targetPoint" />
          </mxGeometry>
        </mxCell>
        <mxCell id="shJ95JAvYnfb2to4ammS-75" value="0..n" style="edgeLabel;resizable=0;html=1;align=left;verticalAlign=top;" parent="shJ95JAvYnfb2to4ammS-74" connectable="0" vertex="1">
          <mxGeometry x="-1" relative="1" as="geometry" />
        </mxCell>
        <mxCell id="shJ95JAvYnfb2to4ammS-76" value="1" style="edgeLabel;resizable=0;html=1;align=right;verticalAlign=top;" parent="shJ95JAvYnfb2to4ammS-74" connectable="0" vertex="1">
          <mxGeometry x="1" relative="1" as="geometry" />
        </mxCell>
        <mxCell id="shJ95JAvYnfb2to4ammS-77" value="users" style="swimlane;fontStyle=0;childLayout=stackLayout;horizontal=1;startSize=30;horizontalStack=0;resizeParent=1;resizeParentMax=0;resizeLast=0;collapsible=1;marginBottom=0;whiteSpace=wrap;html=1;" parent="1" vertex="1">
          <mxGeometry x="1070" y="350" width="140" height="240" as="geometry" />
        </mxCell>
        <mxCell id="shJ95JAvYnfb2to4ammS-78" value="user_id" style="text;strokeColor=none;fillColor=none;align=left;verticalAlign=middle;spacingLeft=4;spacingRight=4;overflow=hidden;points=[[0,0.5],[1,0.5]];portConstraint=eastwest;rotatable=0;whiteSpace=wrap;html=1;" parent="shJ95JAvYnfb2to4ammS-77" vertex="1">
          <mxGeometry y="30" width="140" height="30" as="geometry" />
        </mxCell>
        <mxCell id="shJ95JAvYnfb2to4ammS-85" value="phone" style="text;strokeColor=none;fillColor=none;align=left;verticalAlign=middle;spacingLeft=4;spacingRight=4;overflow=hidden;points=[[0,0.5],[1,0.5]];portConstraint=eastwest;rotatable=0;whiteSpace=wrap;html=1;" parent="shJ95JAvYnfb2to4ammS-77" vertex="1">
          <mxGeometry y="60" width="140" height="30" as="geometry" />
        </mxCell>
        <mxCell id="shJ95JAvYnfb2to4ammS-79" value="mail" style="text;strokeColor=none;fillColor=none;align=left;verticalAlign=middle;spacingLeft=4;spacingRight=4;overflow=hidden;points=[[0,0.5],[1,0.5]];portConstraint=eastwest;rotatable=0;whiteSpace=wrap;html=1;" parent="shJ95JAvYnfb2to4ammS-77" vertex="1">
          <mxGeometry y="90" width="140" height="30" as="geometry" />
        </mxCell>
        <mxCell id="pSLmSaHOFUzQnulKqVT--2" value="first_name" style="text;strokeColor=none;fillColor=none;align=left;verticalAlign=middle;spacingLeft=4;spacingRight=4;overflow=hidden;points=[[0,0.5],[1,0.5]];portConstraint=eastwest;rotatable=0;whiteSpace=wrap;html=1;" vertex="1" parent="shJ95JAvYnfb2to4ammS-77">
          <mxGeometry y="120" width="140" height="30" as="geometry" />
        </mxCell>
        <mxCell id="pSLmSaHOFUzQnulKqVT--1" value="last_name" style="text;strokeColor=none;fillColor=none;align=left;verticalAlign=middle;spacingLeft=4;spacingRight=4;overflow=hidden;points=[[0,0.5],[1,0.5]];portConstraint=eastwest;rotatable=0;whiteSpace=wrap;html=1;" vertex="1" parent="shJ95JAvYnfb2to4ammS-77">
          <mxGeometry y="150" width="140" height="30" as="geometry" />
        </mxCell>
        <mxCell id="shJ95JAvYnfb2to4ammS-80" value="password" style="text;strokeColor=none;fillColor=none;align=left;verticalAlign=middle;spacingLeft=4;spacingRight=4;overflow=hidden;points=[[0,0.5],[1,0.5]];portConstraint=eastwest;rotatable=0;whiteSpace=wrap;html=1;" parent="shJ95JAvYnfb2to4ammS-77" vertex="1">
          <mxGeometry y="180" width="140" height="30" as="geometry" />
        </mxCell>
        <mxCell id="pSLmSaHOFUzQnulKqVT--3" value="role" style="text;strokeColor=none;fillColor=none;align=left;verticalAlign=middle;spacingLeft=4;spacingRight=4;overflow=hidden;points=[[0,0.5],[1,0.5]];portConstraint=eastwest;rotatable=0;whiteSpace=wrap;html=1;" vertex="1" parent="shJ95JAvYnfb2to4ammS-77">
          <mxGeometry y="210" width="140" height="30" as="geometry" />
        </mxCell>
        <mxCell id="shJ95JAvYnfb2to4ammS-81" value="orders" style="swimlane;fontStyle=0;childLayout=stackLayout;horizontal=1;startSize=30;horizontalStack=0;resizeParent=1;resizeParentMax=0;resizeLast=0;collapsible=1;marginBottom=0;whiteSpace=wrap;html=1;" parent="1" vertex="1">
          <mxGeometry x="1440" y="370" width="140" height="240" as="geometry" />
        </mxCell>
        <mxCell id="shJ95JAvYnfb2to4ammS-82" value="order_id" style="text;strokeColor=none;fillColor=none;align=left;verticalAlign=middle;spacingLeft=4;spacingRight=4;overflow=hidden;points=[[0,0.5],[1,0.5]];portConstraint=eastwest;rotatable=0;whiteSpace=wrap;html=1;" parent="shJ95JAvYnfb2to4ammS-81" vertex="1">
          <mxGeometry y="30" width="140" height="30" as="geometry" />
        </mxCell>
        <mxCell id="shJ95JAvYnfb2to4ammS-83" value="products" style="text;strokeColor=none;fillColor=none;align=left;verticalAlign=middle;spacingLeft=4;spacingRight=4;overflow=hidden;points=[[0,0.5],[1,0.5]];portConstraint=eastwest;rotatable=0;whiteSpace=wrap;html=1;" parent="shJ95JAvYnfb2to4ammS-81" vertex="1">
          <mxGeometry y="60" width="140" height="30" as="geometry" />
        </mxCell>
        <mxCell id="shJ95JAvYnfb2to4ammS-84" value="user_id" style="text;strokeColor=none;fillColor=none;align=left;verticalAlign=middle;spacingLeft=4;spacingRight=4;overflow=hidden;points=[[0,0.5],[1,0.5]];portConstraint=eastwest;rotatable=0;whiteSpace=wrap;html=1;" parent="shJ95JAvYnfb2to4ammS-81" vertex="1">
          <mxGeometry y="90" width="140" height="30" as="geometry" />
        </mxCell>
        <mxCell id="shJ95JAvYnfb2to4ammS-87" value="delivery_method" style="text;strokeColor=none;fillColor=none;align=left;verticalAlign=middle;spacingLeft=4;spacingRight=4;overflow=hidden;points=[[0,0.5],[1,0.5]];portConstraint=eastwest;rotatable=0;whiteSpace=wrap;html=1;" parent="shJ95JAvYnfb2to4ammS-81" vertex="1">
          <mxGeometry y="120" width="140" height="30" as="geometry" />
        </mxCell>
        <mxCell id="shJ95JAvYnfb2to4ammS-88" value="payment_method" style="text;strokeColor=none;fillColor=none;align=left;verticalAlign=middle;spacingLeft=4;spacingRight=4;overflow=hidden;points=[[0,0.5],[1,0.5]];portConstraint=eastwest;rotatable=0;whiteSpace=wrap;html=1;" parent="shJ95JAvYnfb2to4ammS-81" vertex="1">
          <mxGeometry y="150" width="140" height="30" as="geometry" />
        </mxCell>
        <mxCell id="shJ95JAvYnfb2to4ammS-91" value="is_paid" style="text;strokeColor=none;fillColor=none;align=left;verticalAlign=middle;spacingLeft=4;spacingRight=4;overflow=hidden;points=[[0,0.5],[1,0.5]];portConstraint=eastwest;rotatable=0;whiteSpace=wrap;html=1;" parent="shJ95JAvYnfb2to4ammS-81" vertex="1">
          <mxGeometry y="180" width="140" height="30" as="geometry" />
        </mxCell>
        <mxCell id="tW2_9nEDNr6UEY2ShWRn-12" value="delivery_time" style="text;strokeColor=none;fillColor=none;align=left;verticalAlign=middle;spacingLeft=4;spacingRight=4;overflow=hidden;points=[[0,0.5],[1,0.5]];portConstraint=eastwest;rotatable=0;whiteSpace=wrap;html=1;" parent="shJ95JAvYnfb2to4ammS-81" vertex="1">
          <mxGeometry y="210" width="140" height="30" as="geometry" />
        </mxCell>
        <mxCell id="shJ95JAvYnfb2to4ammS-92" value="Relation" style="endArrow=open;html=1;endSize=12;startArrow=diamondThin;startSize=14;startFill=0;edgeStyle=orthogonalEdgeStyle;rounded=0;entryX=1;entryY=0.5;entryDx=0;entryDy=0;" parent="1" source="shJ95JAvYnfb2to4ammS-84" target="shJ95JAvYnfb2to4ammS-78" edge="1">
          <mxGeometry relative="1" as="geometry">
            <mxPoint x="1130" y="560" as="sourcePoint" />
            <mxPoint x="1290" y="560" as="targetPoint" />
          </mxGeometry>
        </mxCell>
        <mxCell id="shJ95JAvYnfb2to4ammS-93" value="0..n" style="edgeLabel;resizable=0;html=1;align=left;verticalAlign=top;" parent="shJ95JAvYnfb2to4ammS-92" connectable="0" vertex="1">
          <mxGeometry x="-1" relative="1" as="geometry" />
        </mxCell>
        <mxCell id="shJ95JAvYnfb2to4ammS-94" value="1" style="edgeLabel;resizable=0;html=1;align=right;verticalAlign=top;" parent="shJ95JAvYnfb2to4ammS-92" connectable="0" vertex="1">
          <mxGeometry x="1" relative="1" as="geometry" />
        </mxCell>
        <mxCell id="tW2_9nEDNr6UEY2ShWRn-3" value="opening_hours" style="swimlane;fontStyle=0;childLayout=stackLayout;horizontal=1;startSize=30;horizontalStack=0;resizeParent=1;resizeParentMax=0;resizeLast=0;collapsible=1;marginBottom=0;whiteSpace=wrap;html=1;" parent="1" vertex="1">
          <mxGeometry x="660" y="840" width="140" height="180" as="geometry" />
        </mxCell>
        <mxCell id="tW2_9nEDNr6UEY2ShWRn-4" value="opening_hours_id" style="text;strokeColor=none;fillColor=none;align=left;verticalAlign=middle;spacingLeft=4;spacingRight=4;overflow=hidden;points=[[0,0.5],[1,0.5]];portConstraint=eastwest;rotatable=0;whiteSpace=wrap;html=1;" parent="tW2_9nEDNr6UEY2ShWRn-3" vertex="1">
          <mxGeometry y="30" width="140" height="30" as="geometry" />
        </mxCell>
        <mxCell id="tW2_9nEDNr6UEY2ShWRn-5" value="business_id" style="text;strokeColor=none;fillColor=none;align=left;verticalAlign=middle;spacingLeft=4;spacingRight=4;overflow=hidden;points=[[0,0.5],[1,0.5]];portConstraint=eastwest;rotatable=0;whiteSpace=wrap;html=1;" parent="tW2_9nEDNr6UEY2ShWRn-3" vertex="1">
          <mxGeometry y="60" width="140" height="30" as="geometry" />
        </mxCell>
        <mxCell id="tW2_9nEDNr6UEY2ShWRn-6" value="day_of_week" style="text;strokeColor=none;fillColor=none;align=left;verticalAlign=middle;spacingLeft=4;spacingRight=4;overflow=hidden;points=[[0,0.5],[1,0.5]];portConstraint=eastwest;rotatable=0;whiteSpace=wrap;html=1;" parent="tW2_9nEDNr6UEY2ShWRn-3" vertex="1">
          <mxGeometry y="90" width="140" height="30" as="geometry" />
        </mxCell>
        <mxCell id="tW2_9nEDNr6UEY2ShWRn-8" value="start_time" style="text;strokeColor=none;fillColor=none;align=left;verticalAlign=middle;spacingLeft=4;spacingRight=4;overflow=hidden;points=[[0,0.5],[1,0.5]];portConstraint=eastwest;rotatable=0;whiteSpace=wrap;html=1;" parent="tW2_9nEDNr6UEY2ShWRn-3" vertex="1">
          <mxGeometry y="120" width="140" height="30" as="geometry" />
        </mxCell>
        <mxCell id="tW2_9nEDNr6UEY2ShWRn-7" value="end_time" style="text;strokeColor=none;fillColor=none;align=left;verticalAlign=middle;spacingLeft=4;spacingRight=4;overflow=hidden;points=[[0,0.5],[1,0.5]];portConstraint=eastwest;rotatable=0;whiteSpace=wrap;html=1;" parent="tW2_9nEDNr6UEY2ShWRn-3" vertex="1">
          <mxGeometry y="150" width="140" height="30" as="geometry" />
        </mxCell>
        <mxCell id="tW2_9nEDNr6UEY2ShWRn-9" value="Relation" style="endArrow=open;html=1;endSize=12;startArrow=diamondThin;startSize=14;startFill=0;edgeStyle=orthogonalEdgeStyle;rounded=0;entryX=0;entryY=0.267;entryDx=0;entryDy=0;entryPerimeter=0;" parent="1" source="tW2_9nEDNr6UEY2ShWRn-5" target="shJ95JAvYnfb2to4ammS-30" edge="1">
          <mxGeometry relative="1" as="geometry">
            <mxPoint x="820" y="900" as="sourcePoint" />
            <mxPoint x="980" y="900" as="targetPoint" />
          </mxGeometry>
        </mxCell>
        <mxCell id="tW2_9nEDNr6UEY2ShWRn-10" value="0..n" style="edgeLabel;resizable=0;html=1;align=left;verticalAlign=top;" parent="tW2_9nEDNr6UEY2ShWRn-9" connectable="0" vertex="1">
          <mxGeometry x="-1" relative="1" as="geometry" />
        </mxCell>
        <mxCell id="tW2_9nEDNr6UEY2ShWRn-11" value="1" style="edgeLabel;resizable=0;html=1;align=right;verticalAlign=top;" parent="tW2_9nEDNr6UEY2ShWRn-9" connectable="0" vertex="1">
          <mxGeometry x="1" relative="1" as="geometry" />
        </mxCell>
        <mxCell id="tW2_9nEDNr6UEY2ShWRn-13" value="delivery_time" style="swimlane;fontStyle=0;childLayout=stackLayout;horizontal=1;startSize=30;horizontalStack=0;resizeParent=1;resizeParentMax=0;resizeLast=0;collapsible=1;marginBottom=0;whiteSpace=wrap;html=1;" parent="1" vertex="1">
          <mxGeometry x="1650" y="400" width="140" height="150" as="geometry" />
        </mxCell>
        <mxCell id="tW2_9nEDNr6UEY2ShWRn-14" value="delivery_time_id" style="text;strokeColor=none;fillColor=none;align=left;verticalAlign=middle;spacingLeft=4;spacingRight=4;overflow=hidden;points=[[0,0.5],[1,0.5]];portConstraint=eastwest;rotatable=0;whiteSpace=wrap;html=1;" parent="tW2_9nEDNr6UEY2ShWRn-13" vertex="1">
          <mxGeometry y="30" width="140" height="30" as="geometry" />
        </mxCell>
        <mxCell id="tW2_9nEDNr6UEY2ShWRn-15" value="date" style="text;strokeColor=none;fillColor=none;align=left;verticalAlign=middle;spacingLeft=4;spacingRight=4;overflow=hidden;points=[[0,0.5],[1,0.5]];portConstraint=eastwest;rotatable=0;whiteSpace=wrap;html=1;" parent="tW2_9nEDNr6UEY2ShWRn-13" vertex="1">
          <mxGeometry y="60" width="140" height="30" as="geometry" />
        </mxCell>
        <mxCell id="tW2_9nEDNr6UEY2ShWRn-16" value="time" style="text;strokeColor=none;fillColor=none;align=left;verticalAlign=middle;spacingLeft=4;spacingRight=4;overflow=hidden;points=[[0,0.5],[1,0.5]];portConstraint=eastwest;rotatable=0;whiteSpace=wrap;html=1;" parent="tW2_9nEDNr6UEY2ShWRn-13" vertex="1">
          <mxGeometry y="90" width="140" height="30" as="geometry" />
        </mxCell>
        <mxCell id="tW2_9nEDNr6UEY2ShWRn-17" value="order_id" style="text;strokeColor=none;fillColor=none;align=left;verticalAlign=middle;spacingLeft=4;spacingRight=4;overflow=hidden;points=[[0,0.5],[1,0.5]];portConstraint=eastwest;rotatable=0;whiteSpace=wrap;html=1;" parent="tW2_9nEDNr6UEY2ShWRn-13" vertex="1">
          <mxGeometry y="120" width="140" height="30" as="geometry" />
        </mxCell>
        <mxCell id="tW2_9nEDNr6UEY2ShWRn-18" value="Relation" style="endArrow=open;html=1;endSize=12;startArrow=diamondThin;startSize=14;startFill=0;edgeStyle=orthogonalEdgeStyle;rounded=0;exitX=0;exitY=0.5;exitDx=0;exitDy=0;" parent="1" source="tW2_9nEDNr6UEY2ShWRn-17" target="shJ95JAvYnfb2to4ammS-82" edge="1">
          <mxGeometry relative="1" as="geometry">
            <mxPoint x="1610" y="620" as="sourcePoint" />
            <mxPoint x="1770" y="620" as="targetPoint" />
          </mxGeometry>
        </mxCell>
        <mxCell id="tW2_9nEDNr6UEY2ShWRn-19" value="0..n" style="edgeLabel;resizable=0;html=1;align=left;verticalAlign=top;" parent="tW2_9nEDNr6UEY2ShWRn-18" connectable="0" vertex="1">
          <mxGeometry x="-1" relative="1" as="geometry" />
        </mxCell>
        <mxCell id="tW2_9nEDNr6UEY2ShWRn-20" value="1" style="edgeLabel;resizable=0;html=1;align=right;verticalAlign=top;" parent="tW2_9nEDNr6UEY2ShWRn-18" connectable="0" vertex="1">
          <mxGeometry x="1" relative="1" as="geometry" />
        </mxCell>
        <mxCell id="xaxRuF6UvjNtjwrHPrxr-1" value="Text" style="text;html=1;align=center;verticalAlign=middle;resizable=0;points=[];autosize=1;strokeColor=none;fillColor=none;" parent="1" vertex="1">
          <mxGeometry x="635" y="1058" width="50" height="30" as="geometry" />
        </mxCell>
      </root>
    </mxGraphModel>
  </diagram>
</mxfile>
